<?xml version="1.0" encoding="UTF-8"?>
<svg version="1.1" viewBox="0 0 60 60" xmlns="http://www.w3.org/2000/svg">
<g fill="none" fill-rule="evenodd">
<path d="m30 60c16.569 0 30-13.431 30-30s-13.431-30-30-30-30 13.431-30 30 13.431 30 30 30z" fill="#000"/>
<path d="m25.425 47.517c0-0.44972-0.015867-1.6397-0.024933-3.2201-5.1352 1.1435-6.2186-2.5379-6.2186-2.5379-0.8398-2.187-2.0502-2.7692-2.0502-2.7692-1.6762-1.1748 0.12693-1.1504 0.12693-1.1504 1.853 0.13364 2.8277 1.9511 2.8277 1.9511 1.6467 2.8924 4.3203 2.058 5.3732 1.5734 0.16773-1.2236 0.64487-2.058 1.1719-2.531-4.0993-0.47761-8.4094-2.1022-8.4094-9.3557 0-2.0661 0.71967-3.7558 1.9006-5.0793-0.18927-0.47877-0.82394-2.4031 0.18133-5.0096 0 0 1.5504-0.50898 5.0762 1.9406 1.4722-0.4195 3.0521-0.631 4.6229-0.63797 1.5674 0.0069723 3.1462 0.21847 4.6218 0.63797 3.5236-2.4496 5.0717-1.9406 5.0717-1.9406 1.0075 2.6053 0.374 4.5297 0.1836 5.0096 1.1832 1.3236 1.8972 3.0132 1.8972 5.0793 0 7.2721-4.3169 8.8723-8.4298 9.3406 0.66414 0.58451 1.2535 1.7396 1.2535 3.5059 0 2.531-0.0238 4.5727-0.0238 5.1932 0 0.50666 0.3332 1.0947 1.2705 0.90989 7.3293-2.5077 12.614-9.5986 12.614-17.958 0-10.455-8.2666-18.93-18.462-18.93-10.194 0-18.461 8.4749-18.461 18.93 0.0011334 8.3622 5.2904 15.458 12.627 17.961 0.92254 0.17315 1.2603-0.41137 1.2603-0.91221z" fill="#fff"/>
</g>
</svg>
