<?xml version="1.0" encoding="UTF-8"?>
<svg enable-background="new 0 0 1000 1000" version="1.1" viewBox="0 0 1e3 1e3" xml:space="preserve" xmlns="http://www.w3.org/2000/svg"><style type="text/css">
	.st0{fill:url(#a);}
	.st1{fill:#FFFFFF;}
</style><linearGradient id="a" x1="146.45" x2="853.55" y1="853.55" y2="146.45" gradientUnits="userSpaceOnUse"><stop stop-color="#FFD521" offset="0"/><stop stop-color="#FFD020" offset=".055105"/><stop stop-color="#FEC01E" offset=".1241"/><stop stop-color="#FCA71B" offset=".2004"/><stop stop-color="#FA8316" offset=".2821"/><stop stop-color="#F85510" offset=".3681"/><stop stop-color="#F51E09" offset=".4563"/><stop stop-color="#F30005" offset=".5"/><stop stop-color="#F20007" offset=".5035"/><stop stop-color="#E1003B" offset=".5966"/><stop stop-color="#D30067" offset=".6879"/><stop stop-color="#C70088" offset=".7757"/><stop stop-color="#BF00A0" offset=".8589"/><stop stop-color="#BB00AF" offset=".9357"/><stop stop-color="#B900B4" offset="1"/></linearGradient><path class="st0" d="m500 1e3c-276.1 0-500-223.9-500-500s223.9-500 500-500 500 223.9 500 500-223.9 500-500 500z"/><path class="st1" d="m500 220.2c91.1 0 101.9 0.3 137.9 2 33.3 1.5 51.4 7.1 63.4 11.8 15.9 6.2 27.3 13.6 39.2 25.5s19.3 23.3 25.5 39.2c4.7 12 10.2 30.1 11.8 63.4 1.6 36 2 46.8 2 137.9s-0.3 101.9-2 137.9c-1.5 33.3-7.1 51.4-11.8 63.4-6.2 15.9-13.6 27.3-25.5 39.2s-23.3 19.3-39.2 25.5c-12 4.7-30.1 10.2-63.4 11.8-36 1.6-46.8 2-137.9 2s-101.9-0.3-137.9-2c-33.3-1.5-51.4-7.1-63.4-11.8-15.9-6.2-27.3-13.6-39.2-25.5s-19.3-23.3-25.5-39.2c-4.7-12-10.2-30.1-11.8-63.4-1.6-36-2-46.8-2-137.9s0.3-101.9 2-137.9c1.5-33.3 7.1-51.4 11.8-63.4 6.2-15.9 13.6-27.3 25.5-39.2s23.3-19.3 39.2-25.5c12-4.7 30.1-10.2 63.4-11.8 36-1.7 46.8-2 137.9-2m0-61.5c-92.7 0-104.3 0.4-140.7 2.1-36.3 1.7-61.1 7.4-82.9 15.9-22.4 8.6-41.5 20.3-60.4 39.3-19 19-30.6 38-39.4 60.5-8.4 21.7-14.2 46.5-15.9 82.9s-2.1 48-2.1 140.7 0.4 104.3 2.1 140.7c1.7 36.3 7.4 61.1 15.9 82.9 8.7 22.3 20.4 41.4 39.4 60.3 19 19 38 30.6 60.5 39.4 21.7 8.4 46.5 14.2 82.9 15.9s48 2.1 140.7 2.1 104.3-0.4 140.7-2.1c36.3-1.7 61.1-7.4 82.9-15.9 22.3-8.7 41.4-20.4 60.3-39.4 19-19 30.6-38 39.4-60.5 8.4-21.7 14.2-46.5 15.9-82.9s2.1-48 2.1-140.7-0.4-104.3-2.1-140.7c-1.7-36.3-7.4-61.1-15.9-82.9-8.7-22.3-20.4-41.4-39.4-60.3-19-19-38-30.6-60.5-39.4-21.7-8.4-46.5-14.2-82.9-15.9-36.3-1.6-47.9-2-140.6-2z"/><path class="st1" d="m500 324.7c-96.8 0-175.3 78.5-175.3 175.3s78.5 175.3 175.3 175.3 175.3-78.5 175.3-175.3-78.5-175.3-175.3-175.3zm0 289.1c-62.8 0-113.8-50.9-113.8-113.8s51-113.8 113.8-113.8 113.8 50.9 113.8 113.8-51 113.8-113.8 113.8z"/><circle class="st1" cx="682.2" cy="317.8" r="41"/></svg>
