<?xml version="1.0" encoding="UTF-8"?>
<svg enable-background="new 0 0 512 512" version="1.1" viewBox="0 0 512 512" xml:space="preserve" xmlns="http://www.w3.org/2000/svg"><style type="text/css">
	.st0{fill:url(#a);}
	.st1{fill:#FFFFFF;}
	.st2{fill:#D2E4F0;}
	.st3{fill:#B5CFE4;}
</style><linearGradient id="a" x1="256" x2="256" y2="510.13" gradientUnits="userSpaceOnUse"><stop stop-color="#41BCE7" offset="0"/><stop stop-color="#22A6DC" offset="1"/></linearGradient><circle class="st0" cx="256" cy="256" r="256"/><path class="st1" d="m380.6 147.3-45.7 230.5s-6.4 16-24 8.3l-105.5-80.9-38.4-18.5-64.6-21.7s-9.9-3.5-10.9-11.2 11.2-11.8 11.2-11.8l256.8-100.7c0-0.1 21.1-9.4 21.1 6z"/><path class="st2" d="m197.2 375.2s-3.1-0.3-6.9-12.4-23.3-76.1-23.3-76.1l155.1-98.5s9-5.4 8.6 0c0 0 1.6 1-3.2 5.4-4.8 4.5-121.8 109.7-121.8 109.7"/><path class="st3" d="m245.8 336.2-41.7 38.1s-3.3 2.5-6.8 0.9l8-70.7"/></svg>
